<svg width="13" height="13" viewBox="0 0 13 13" fill="none" xmlns="http://www.w3.org/2000/svg">
<path d="M6.5 1.19167C8.23333 1.19167 8.45 1.19167 9.15417 1.24583C10.9417 1.3 11.7542 2.16667 11.8083 3.9C11.8625 4.60417 11.8625 4.76667 11.8625 6.5C11.8625 8.23333 11.8625 8.45 11.8083 9.1C11.7542 10.8333 10.8875 11.7 9.15417 11.7542C8.45 11.8083 8.2875 11.8083 6.5 11.8083C4.76667 11.8083 4.55 11.8083 3.9 11.7542C2.1125 11.7 1.3 10.8333 1.24583 9.1C1.19167 8.39583 1.19167 8.23333 1.19167 6.5C1.19167 4.76667 1.19167 4.55 1.24583 3.9C1.3 2.16667 2.16667 1.3 3.9 1.24583C4.55 1.19167 4.76667 1.19167 6.5 1.19167ZM6.5 0C4.7125 0 4.49583 0 3.84583 0.0541667C1.4625 0.1625 0.1625 1.4625 0.0541667 3.84583C0 4.49583 0 4.7125 0 6.5C0 8.2875 0 8.50417 0.0541667 9.15417C0.1625 11.5375 1.4625 12.8375 3.84583 12.9458C4.49583 13 4.7125 13 6.5 13C8.2875 13 8.50417 13 9.15417 12.9458C11.5375 12.8375 12.8375 11.5375 12.9458 9.15417C13 8.50417 13 8.2875 13 6.5C13 4.7125 13 4.49583 12.9458 3.84583C12.8375 1.4625 11.5375 0.1625 9.15417 0.0541667C8.50417 0 8.2875 0 6.5 0ZM6.5 3.14167C4.65833 3.14167 3.14167 4.65833 3.14167 6.5C3.14167 8.34167 4.65833 9.85833 6.5 9.85833C8.34167 9.85833 9.85833 8.34167 9.85833 6.5C9.85833 4.65833 8.34167 3.14167 6.5 3.14167ZM6.5 8.66667C5.30833 8.66667 4.33333 7.69167 4.33333 6.5C4.33333 5.30833 5.30833 4.33333 6.5 4.33333C7.69167 4.33333 8.66667 5.30833 8.66667 6.5C8.66667 7.69167 7.69167 8.66667 6.5 8.66667ZM9.96667 2.275C9.53333 2.275 9.20833 2.6 9.20833 3.03333C9.20833 3.46667 9.53333 3.79167 9.96667 3.79167C10.4 3.79167 10.725 3.46667 10.725 3.03333C10.725 2.6 10.4 2.275 9.96667 2.275Z" fill="white"/>
</svg>
