<svg width="15" height="12" viewBox="0 0 15 12" fill="none" xmlns="http://www.w3.org/2000/svg">
<path d="M4.71737 12C10.378 12 13.4736 7.38369 13.4736 3.38083C13.4736 3.24967 13.4709 3.11919 13.4647 2.98921C14.0656 2.56165 14.588 2.02796 15 1.42071C14.4486 1.66187 13.8552 1.82426 13.2327 1.89748C13.868 1.52248 14.356 0.929006 14.5861 0.221672C13.9914 0.56879 13.3329 0.821025 12.632 0.957051C12.0702 0.368277 11.2704 0 10.3855 0C8.68578 0 7.30747 1.35673 7.30747 3.02901C7.30747 3.2668 7.3346 3.49788 7.38715 3.71972C4.82962 3.59327 2.56162 2.38767 1.04392 0.554851C0.779318 1.00239 0.626969 1.52265 0.626969 2.07733C0.626969 3.12826 1.17034 4.05609 1.99658 4.59902C1.49176 4.58374 1.01748 4.44704 0.602743 4.21999C0.602061 4.23259 0.602061 4.24535 0.602061 4.25862C0.602061 5.72585 1.66305 6.95075 3.07104 7.22835C2.81257 7.2977 2.54063 7.33499 2.25982 7.33499C2.06158 7.33499 1.86879 7.3155 1.6813 7.28041C2.07301 8.48382 3.20923 9.35975 4.55632 9.38444C3.50284 10.1971 2.17588 10.6812 0.734108 10.6812C0.48588 10.6812 0.240893 10.6673 0 10.6392C1.36193 11.4984 2.97908 12 4.71737 12Z" fill="white"/>
</svg>
